<?xml version="1.0" encoding="UTF-8" standalone="no"?>
<svg
   xmlns:dc="http://purl.org/dc/elements/1.1/"
   xmlns:cc="http://creativecommons.org/ns#"
   xmlns:rdf="http://www.w3.org/1999/02/22-rdf-syntax-ns#"
   xmlns:svg="http://www.w3.org/2000/svg"
   xmlns="http://www.w3.org/2000/svg"
   xmlns:sodipodi="http://sodipodi.sourceforge.net/DTD/sodipodi-0.dtd"
   xmlns:inkscape="http://www.inkscape.org/namespaces/inkscape"
   width="1586.9609"
   height="361.01999"
   viewBox="0 0 1586.9609 361.01999"
   version="1.1"
   id="svg34"
   sodipodi:docname="Logo_mit_D2D.svg"
   style="fill:none"
   inkscape:version="0.92.2 5c3e80d, 2017-08-06"
   inkscape:export-filename="/home/cgebhard/Projekte/Data2Decision/video/image_files/Logo_mit_D2D.png"
   inkscape:export-xdpi="96"
   inkscape:export-ydpi="96">
  <metadata
     id="metadata40">
    <rdf:RDF>
      <cc:Work
         rdf:about="">
        <dc:format>image/svg+xml</dc:format>
        <dc:type
           rdf:resource="http://purl.org/dc/dcmitype/StillImage" />
        <dc:title></dc:title>
      </cc:Work>
    </rdf:RDF>
  </metadata>
  <defs
     id="defs38" />
  <sodipodi:namedview
     pagecolor="#ffffff"
     bordercolor="#666666"
     borderopacity="1"
     objecttolerance="10"
     gridtolerance="10"
     guidetolerance="10"
     inkscape:pageopacity="0"
     inkscape:pageshadow="2"
     inkscape:window-width="1874"
     inkscape:window-height="1051"
     id="namedview36"
     showgrid="false"
     fit-margin-top="20"
     fit-margin-left="20"
     fit-margin-right="20"
     fit-margin-bottom="20"
     inkscape:zoom="0.49824561"
     inkscape:cx="961.40494"
     inkscape:cy="59.594276"
     inkscape:window-x="46"
     inkscape:window-y="0"
     inkscape:window-maximized="1"
     inkscape:current-layer="svg34" />
  <path
     d="m 31.77,165.13 h 8.4 l -2.54,8.01 h -8.4 z m 11.95,-11.33 -2.71,8.57 h -8.4 l 2.67,-8.57 h -2.93 l -2.67,8.57 H 23.2 v 2.76 h 5.6 l -2.54,8.01 H 20 v 2.76 h 5.43 l -2.8,8.97 h 2.97 l 2.76,-8.97 h 8.44 l -2.8,8.97 h 2.93 l 2.76,-8.97 h 6.56 v -2.76 h -5.69 l 2.54,-8.01 h 6.3 v -2.76 h -5.47 l 2.67,-8.57 z"
     id="path2"
     inkscape:connector-curvature="0"
     style="fill:#2b2b2a" />
  <path
     d="m 554.05,196.1 c 9.52,0 16.35,-5.35 16.35,-14.2 0,-7.8 -4.39,-12.12 -12.27,-15.16 l -6.99,-2.68 c -5.35,-2.08 -7.88,-4.24 -7.88,-9.07 0,-4.83 4.53,-8.1 10.26,-8.1 4.83,0 8.03,2.16 10.78,5.43 l 4.39,-3.57 c -2.82,-4.01 -8.25,-7.21 -14.94,-7.21 -9.14,0 -16.13,5.28 -16.13,13.53 0,7.21 3.49,11.3 11.67,14.42 l 7.81,2.97 c 4.83,1.86 7.66,4.98 7.66,9.59 0,5.43 -4.76,8.7 -10.63,8.7 -6.39,0 -10.63,-2.82 -13.6,-7.51 l -4.68,3.35 c 2.37,5.27 9.43,9.51 18.2,9.51 z m -54.85,0 c 12.04,0 20.37,-8.18 20.37,-21.33 v -32.34 h -5.65 v 32.48 c 0,10.18 -5.87,15.83 -14.72,15.83 -8.85,0 -14.72,-5.65 -14.72,-15.83 v -32.48 h -5.65 v 32.33 c 0,13.16 8.33,21.34 20.37,21.34 z M 432.23,165.47 V 147.7 h 10.93 c 6.69,0 10.55,3.05 10.55,8.92 0,5.87 -3.86,8.85 -10.55,8.85 z m -5.65,29.74 h 5.65 v -24.53 h 6.02 l 20.89,24.53 h 7.36 l -20.81,-24.45 c 8.55,-0.67 13.75,-6.1 13.75,-14.12 0,-8.62 -5.95,-14.2 -15.61,-14.2 h -17.25 z m -27.06,0 h 5.65 v -52.78 h -5.65 z m -42.15,0 h 4.61 l 22.67,-52.78 h -6.24 l -18.73,43.56 -18.73,-43.56 h -6.32 z"
     id="path4"
     inkscape:connector-curvature="0"
     style="fill:#2b2b2a" />
  <path
     d="m 308.54,196.1 c 9.52,0 16.35,-5.35 16.35,-14.2 0,-7.8 -4.39,-12.12 -12.26,-15.16 l -6.99,-2.68 c -5.35,-2.08 -7.88,-4.24 -7.88,-9.07 0,-4.83 4.53,-8.1 10.26,-8.1 4.83,0 8.03,2.16 10.78,5.43 l 4.39,-3.57 c -2.83,-4.01 -8.25,-7.21 -14.94,-7.21 -9.14,0 -16.13,5.28 -16.13,13.53 0,7.21 3.49,11.3 11.67,14.42 l 7.8,2.97 c 4.83,1.86 7.66,4.98 7.66,9.59 0,5.43 -4.76,8.7 -10.63,8.7 -6.39,0 -10.63,-2.82 -13.6,-7.51 l -4.68,3.35 c 2.36,5.27 9.43,9.51 18.2,9.51 z m -55.08,-0.89 h 4.61 l 22.67,-52.78 h -6.24 l -18.73,43.56 -18.73,-43.56 h -6.32 z"
     stroke-miterlimit="5.533"
     id="path6"
     inkscape:connector-curvature="0"
     style="stroke:#2b2b2a;stroke-width:2;stroke-miterlimit:5.53299999" />
  <path
     d="m 191.46,163.39 v -10.11 h 7.58 c 3.49,0 6.02,1.86 6.02,5.06 0,3.05 -2.53,5.05 -6.02,5.05 z m -11.81,31.82 h 11.82 v -21.78 h 1.93 l 17.54,21.78 h 14.2 l -18.66,-23.27 c 6.69,-2.38 10.33,-6.76 10.33,-13.6 0,-8.77 -6.39,-15.91 -16.35,-15.91 h -20.81 z m -29.66,0 h 11.82 v -52.78 h -11.82 z m -71.58,0 h 10.63 l 10.56,-34.79 10.48,34.79 h 10.7 l 16.43,-52.78 h -12.64 l -9.59,33.67 -10.26,-33.67 H 94.31 L 84.05,175.95 74.46,142.43 H 61.98 Z"
     id="path8"
     inkscape:connector-curvature="0"
     style="fill:#2b2b2a" />
  <path
     d="m 559.83,225.99 c 2.41,0 4.91,-0.75 6.45,-2.31 v -7.32 h -6.8 v 1.68 h 5.05 v 4.91 c -1.17,0.96 -3.01,1.36 -4.7,1.36 -4.32,0 -7.13,-3.01 -7.13,-6.89 0,-3.88 2.9,-6.89 6.85,-6.89 2.1,0 3.71,0.72 4.93,1.82 l 1.15,-1.31 c -1.52,-1.43 -3.58,-2.2 -6.08,-2.2 -4.88,0 -8.65,3.74 -8.65,8.58 0,4.84 3.67,8.57 8.93,8.57 z m -14.47,-0.28 v -16.59 h -1.78 v 13.58 l -10.59,-13.58 h -1.57 v 16.59 h 1.78 v -13.58 l 10.59,13.58 z m -26.85,0.28 c 3.79,0 6.4,-2.57 6.4,-6.71 v -10.17 h -1.78 v 10.21 c 0,3.2 -1.85,4.98 -4.63,4.98 -2.78,0 -4.63,-1.78 -4.63,-4.98 v -10.21 h -1.78 v 10.17 c 0.02,4.14 2.64,6.71 6.42,6.71 z m -21.05,-9.62 v -5.59 h 3.43 c 2.1,0 3.32,0.96 3.32,2.8 0,1.85 -1.22,2.78 -3.32,2.78 h -3.43 z m -1.78,9.34 h 1.78 V 218 h 1.89 l 6.57,7.71 h 2.31 l -6.54,-7.69 c 2.69,-0.21 4.32,-1.92 4.32,-4.44 0,-2.71 -1.87,-4.46 -4.91,-4.46 h -5.42 z m -15.05,0 h 9.46 v -1.68 h -7.69 v -6.01 h 6.29 v -1.68 h -6.29 v -5.54 h 7.69 v -1.68 h -9.46 z m -8.5,0 h 1.78 v -16.59 h -1.78 z m -12.25,0.28 c 2.41,0 4.91,-0.75 6.45,-2.31 v -7.32 h -6.8 v 1.68 h 5.05 v 4.91 c -1.17,0.96 -3.02,1.36 -4.7,1.36 -4.32,0 -7.13,-3.01 -7.13,-6.89 0,-3.88 2.9,-6.89 6.85,-6.89 2.1,0 3.72,0.72 4.93,1.82 l 1.14,-1.31 c -1.52,-1.43 -3.58,-2.2 -6.08,-2.2 -4.88,0 -8.65,3.74 -8.65,8.58 0.01,4.84 3.68,8.57 8.94,8.57 z m -22.32,-0.28 h 9.46 v -1.68 h -7.69 v -6.01 h 6.29 v -1.68 h -6.29 v -5.54 h 7.69 v -1.68 h -9.46 z m -15,-9.34 v -5.59 h 3.43 c 2.1,0 3.32,0.96 3.32,2.8 0,1.85 -1.22,2.78 -3.32,2.78 h -3.43 z m -1.78,9.34 h 1.78 V 218 h 1.89 l 6.57,7.71 h 2.31 l -6.54,-7.69 c 2.69,-0.21 4.32,-1.92 4.32,-4.44 0,-2.71 -1.87,-4.46 -4.91,-4.46 h -5.42 z m -10.61,0.28 c 2.99,0 5.14,-1.68 5.14,-4.46 0,-2.45 -1.38,-3.81 -3.86,-4.77 l -2.2,-0.84 c -1.68,-0.65 -2.48,-1.33 -2.48,-2.85 0,-1.52 1.43,-2.55 3.23,-2.55 1.52,0 2.52,0.68 3.39,1.71 l 1.38,-1.12 c -0.89,-1.26 -2.59,-2.27 -4.7,-2.27 -2.88,0 -5.07,1.66 -5.07,4.25 0,2.27 1.1,3.55 3.67,4.53 l 2.45,0.94 c 1.52,0.58 2.41,1.57 2.41,3.01 0,1.71 -1.49,2.73 -3.34,2.73 -2.01,0 -3.34,-0.89 -4.28,-2.36 l -1.47,1.05 c 0.76,1.67 2.98,3 5.73,3 z m -19.37,-0.28 h 9.46 v -1.68 h -7.69 v -6.01 h 6.29 v -1.68 h -6.29 v -5.54 h 7.69 v -1.68 h -9.46 z m -17.22,-1.68 V 210.8 h 2.76 c 4.3,0 7.13,2.78 7.13,6.61 0,3.83 -2.83,6.61 -7.13,6.61 h -2.76 z m -1.78,1.68 h 4.53 c 5.21,0 8.93,-3.5 8.93,-8.3 0,-4.8 -3.72,-8.3 -8.93,-8.3 h -4.53 z m -6.73,0 v -16.59 h -1.78 V 222.7 L 352.7,209.12 h -1.57 v 16.59 h 1.78 v -13.58 l 10.59,13.58 z m -26.85,0.28 c 3.79,0 6.4,-2.57 6.4,-6.71 v -10.17 h -1.78 v 10.21 c 0,3.2 -1.85,4.98 -4.63,4.98 -2.78,0 -4.63,-1.78 -4.63,-4.98 v -10.21 h -1.78 v 10.17 c 0.02,4.14 2.63,6.71 6.42,6.71 z m -21.2,-1.89 v -6.19 h 4.04 c 2.5,0 3.72,1.33 3.72,3.11 0,1.8 -1.24,3.08 -3.74,3.08 z m 0,-7.73 v -5.63 h 3.58 c 1.96,0 3.08,1.31 3.08,2.83 0,1.61 -1.12,2.8 -3.08,2.8 z m -1.77,9.34 h 5.61 c 3.48,0 5.68,-2.06 5.68,-4.84 0,-2.31 -1.33,-3.44 -2.99,-3.97 1.12,-0.65 1.89,-1.78 1.89,-3.53 0,-2.24 -1.78,-4.25 -4.95,-4.25 h -5.24 z m -22.41,-9.34 v -5.59 h 3.44 c 2.1,0 3.32,0.96 3.32,2.8 0,1.85 -1.22,2.78 -3.32,2.78 h -3.44 z m -1.78,9.34 h 1.78 V 218 h 1.89 l 6.57,7.71 h 2.31 l -6.54,-7.69 c 2.69,-0.21 4.32,-1.92 4.32,-4.44 0,-2.71 -1.87,-4.46 -4.91,-4.46 h -5.42 z m -15.05,0 h 9.46 v -1.68 h -7.69 v -6.01 h 6.29 v -1.68 h -6.29 v -5.54 h 7.69 v -1.68 h -9.46 z m -17.22,-1.68 V 210.8 h 2.76 c 4.3,0 7.13,2.78 7.13,6.61 0,3.83 -2.83,6.61 -7.13,6.61 h -2.76 z m -1.78,1.68 h 4.53 c 5.21,0 8.93,-3.5 8.93,-8.3 0,-4.8 -3.72,-8.3 -8.93,-8.3 h -4.53 z m -14.56,0 v -16.59 h -1.78 v 13.58 l -10.59,-13.58 h -1.57 v 16.59 h 1.78 v -13.58 l 10.59,13.58 z m -28.04,-1.4 c -3.86,0 -6.78,-3.01 -6.78,-6.89 0,-3.88 2.92,-6.89 6.78,-6.89 3.86,0 6.78,3.01 6.78,6.89 0,3.88 -2.92,6.89 -6.78,6.89 z m 0,1.68 c 4.79,0 8.58,-3.74 8.58,-8.58 0,-4.84 -3.79,-8.58 -8.58,-8.58 -4.79,0 -8.58,3.74 -8.58,8.58 0,4.85 3.79,8.58 8.58,8.58 z m -27.36,-0.28 h 1.78 v -7.69 h 9.7 v 7.69 h 1.78 v -16.59 h -1.78 v 7.22 h -9.7 v -7.22 h -1.78 z m -11.92,0 h 1.75 V 210.8 h 5.37 v -1.68 h -12.5 v 1.68 h 5.38 z m -17.95,-6.82 3.23,-7.27 3.22,7.27 z m -4.86,6.82 h 1.82 l 2.29,-5.16 h 7.95 l 2.29,5.16 h 1.87 l -7.41,-16.59 h -1.43 z m -15.49,0 h 1.75 v -8.02 l 9.32,8.02 h 2.64 l -10.17,-8.72 8.25,-7.88 h -2.41 l -7.64,7.27 v -7.27 h -1.75 v 16.6 z m -12.39,0.28 c 3.06,0 5.7,-1.52 7.22,-3.88 l -1.47,-0.93 c -1.19,1.87 -3.25,3.13 -5.75,3.13 -3.86,0 -6.78,-3.01 -6.78,-6.89 0,-3.88 2.92,-6.89 6.78,-6.89 2.5,0 4.56,1.26 5.75,3.13 l 1.47,-0.93 c -1.52,-2.36 -4.16,-3.88 -7.22,-3.88 -4.79,0 -8.58,3.74 -8.58,8.58 0,4.83 3.79,8.56 8.58,8.56 z m -22.93,-7.1 3.23,-7.27 3.22,7.27 z m -4.86,6.82 h 1.82 l 2.29,-5.16 h 7.95 l 2.29,5.16 h 1.87 l -7.41,-16.59 h -1.43 z m -17.85,0 h 1.78 v -7.69 h 9.7 v 7.69 h 1.78 v -16.59 h -1.78 v 7.22 h -9.7 v -7.22 H 78.8 Z m -22.41,-9.34 v -5.59 h 3.43 c 2.1,0 3.32,0.96 3.32,2.8 0,1.85 -1.22,2.78 -3.32,2.78 h -3.43 z m -1.78,9.34 h 1.78 V 218 h 1.89 l 6.57,7.71 h 2.31 l -6.54,-7.69 c 2.69,-0.21 4.32,-1.92 4.32,-4.44 0,-2.71 -1.87,-4.46 -4.91,-4.46 h -5.42 z m -15.05,0 h 9.47 v -1.68 h -7.69 v -6.01 h 6.29 v -1.68 h -6.29 v -5.54 h 7.69 v -1.68 H 39.56 Z M 22.34,224.03 V 210.8 h 2.76 c 4.3,0 7.13,2.78 7.13,6.61 0,3.83 -2.83,6.61 -7.13,6.61 h -2.76 z m -1.78,1.68 h 4.53 c 5.21,0 8.93,-3.5 8.93,-8.3 0,-4.8 -3.72,-8.3 -8.93,-8.3 h -4.53 z"
     id="path10"
     inkscape:connector-curvature="0"
     style="fill:#2b2b2a" />
  <path
     d="m 706.08,43.9701 c 2.98,0.09 5.81,1.34 7.89,3.48 67.08,67.0799 67.08,176.1799 0,243.2599 -67.08,67.08 -176.19,67.08 -243.26,0 -4.55,-4.42 -4.66,-11.68 -0.24,-16.23 4.42,-4.55 11.69,-4.66 16.24,-0.24 0.08,0.08 0.16,0.16 0.24,0.24 58.3,58.3 152.49,58.3 210.79,0 58.3,-58.3 58.3,-152.49 0,-210.7899 -4.55,-4.42 -4.65,-11.69 -0.23,-16.24 2.24,-2.32 5.35,-3.58 8.57,-3.48 z"
     id="path12"
     inkscape:connector-curvature="0"
     style="fill:#000000" />
  <path
     d="m 592.34,20 c 53.19,0 102.48,28.42 129.04,74.54 26.64,46.1 26.64,102.97 0,149.08 -26.56,46.11 -75.86,74.53 -129.04,74.53 -6.34,0.1 -11.56,-4.96 -11.66,-11.3 -0.1,-6.34 4.96,-11.56 11.3,-11.66 0.12,0 0.24,0 0.36,0 45.01,0 86.69,-24.03 109.15,-63.04 v -0.01 l 0.01,-0.01 c 22.55,-39.03 22.55,-87.07 0,-126.1 l -0.01,-0.01 v -0.01 C 679.03,66.99 637.35,42.96 592.34,42.96 586,43.06 580.78,38 580.68,31.66 c -0.1,-6.34 4.96,-11.56 11.3,-11.66 0.12,0 0.24,0 0.36,0 z"
     id="path14"
     inkscape:connector-curvature="0"
     style="fill:#de0000" />
  <path
     d="m 592.34,43.06 c 32.31,0 64.62,12.3001 89.21,36.8901 49.11,49.1099 49.1,129.1399 0.01,178.3299 -4.44,4.53 -11.71,4.61 -16.24,0.17 -4.53,-4.44 -4.61,-11.71 -0.17,-16.24 0.05,-0.05 0.1,-0.1 0.16,-0.16 40.34,-40.42 40.33,-105.55 0.01,-145.88 -40.43,-40.4099 -105.54,-40.41 -145.96,0.01 -4.42,4.55 -11.68,4.66 -16.23,0.24 -4.55,-4.42 -4.66,-11.69 -0.24,-16.24 0.08,-0.08 0.16,-0.16 0.24,-0.24 24.59,-24.59 56.9,-36.88 89.21,-36.88 z"
     id="path16"
     inkscape:connector-curvature="0"
     style="fill:#ffcf00" />
  <path
     d="m 814.45,63.76 c 1.657,0 3,1.3431 3,3 v 231 c 0,1.657 -1.343,3 -3,3 -1.657,0 -3,-1.343 -3,-3 v -231 c 0,-1.6569 1.343,-3 3,-3 z"
     id="path32"
     inkscape:connector-curvature="0"
     style="clip-rule:evenodd;fill:#2b2b2a;fill-rule:evenodd" />
  <text
     xml:space="preserve"
     style="font-style:normal;font-variant:normal;font-weight:600;font-stretch:normal;font-size:96px;line-height:1.25;font-family:Cabin;-inkscape-font-specification:'Cabin, Semi-Bold';font-variant-ligatures:normal;font-variant-caps:normal;font-variant-numeric:normal;font-feature-settings:normal;text-align:start;letter-spacing:0px;word-spacing:0px;writing-mode:lr-tb;text-anchor:start;fill:#000000;fill-opacity:1;stroke:none;stroke-width:0.99999994"
     x="863.70453"
     y="187.71028"
     id="text4506"><tspan
       sodipodi:role="line"
       id="tspan4504"
       x="863.70453"
       y="187.71028"
       style="font-style:normal;font-variant:normal;font-weight:600;font-stretch:normal;font-size:96px;font-family:Cabin;-inkscape-font-specification:'Cabin, Semi-Bold';font-variant-ligatures:normal;font-variant-caps:normal;font-variant-numeric:normal;font-feature-settings:normal;text-align:start;writing-mode:lr-tb;text-anchor:start;stroke-width:0.99999994">DATA</tspan></text>
  <text
     xml:space="preserve"
     style="font-style:italic;font-variant:normal;font-weight:bold;font-stretch:normal;font-size:96px;line-height:1.25;font-family:Cabin;-inkscape-font-specification:'Cabin, Bold Italic';font-variant-ligatures:normal;font-variant-caps:normal;font-variant-numeric:normal;font-feature-settings:normal;text-align:start;letter-spacing:0px;word-spacing:0px;writing-mode:lr-tb;text-anchor:start;fill:#000000;fill-opacity:1;stroke:none;stroke-width:0.99999994"
     x="1144.8639"
     y="262.34796"
     id="text4510"><tspan
       style="stroke-width:0.99999994"
       sodipodi:role="line"
       id="tspan4528"
       x="1144.8639"
       y="262.34796">DECISION</tspan></text>
  <text
     xml:space="preserve"
     style="font-style:normal;font-variant:normal;font-weight:normal;font-stretch:normal;font-size:192px;line-height:1.25;font-family:'Libertinus Sans';-inkscape-font-specification:'Libertinus Sans, Normal';font-variant-ligatures:normal;font-variant-caps:normal;font-variant-numeric:normal;font-feature-settings:normal;text-align:start;letter-spacing:0px;word-spacing:0px;writing-mode:lr-tb;text-anchor:start;fill:#dc2626;fill-opacity:1;stroke:none;stroke-width:0.99999994"
     x="1070.1898"
     y="235.60994"
     id="text4514"><tspan
       sodipodi:role="line"
       id="tspan4512"
       x="1070.1898"
       y="235.60994"
       style="font-style:normal;font-variant:normal;font-weight:normal;font-stretch:normal;font-size:192px;font-family:'Libertinus Sans';-inkscape-font-specification:'Libertinus Sans, Normal';font-variant-ligatures:normal;font-variant-caps:normal;font-variant-numeric:normal;font-feature-settings:normal;text-align:start;writing-mode:lr-tb;text-anchor:start;fill:#dc2626;fill-opacity:1;stroke-width:0.99999994">2</tspan></text>
  <path
     sodipodi:type="star"
     style="fill:#dc2626;fill-opacity:1;stroke:none;stroke-width:0.26499999;stroke-linecap:round;stroke-miterlimit:4;stroke-dasharray:none;stroke-opacity:1"
     id="path4532"
     sodipodi:sides="3"
     sodipodi:cx="47.039436"
     sodipodi:cy="162.02888"
     sodipodi:r1="5.8616781"
     sodipodi:r2="2.9308388"
     sodipodi:arg1="0.81764505"
     sodipodi:arg2="1.8648426"
     inkscape:flatsided="true"
     inkscape:rounded="0"
     inkscape:randomized="0"
     d="m 51.048479,166.3052 -9.716959,-2.94254 7.40679,-6.94386 z"
     inkscape:transform-center-x="-1.4417866"
     inkscape:transform-center-y="-0.027211351"
     transform="matrix(2.6104631,-2.733187,2.733187,2.6104631,587.3724,-65.559435)" />
</svg>
